# AST/ASF file generated using VICON BodyLanguage
# -----------------------------------------------
:version 1.10
:name VICON
:units
  mass 1.0
  length 0.45
  angle deg
:documentation
   .ast/.asf automatically generated from VICON data using
   VICON BodyBuilder and BodyLanguage model FoxedUp or BRILLIANT.MOD
:root
   order TX TY TZ RX RY RZ
   axis XYZ
   position 0 0 0  
   orientation 0 0 0 
:bonedata
  begin
     id 1 
     name lhipjoint
     direction 0.624716 -0.669793 0.401383 
     length 2.38238 
     axis 0 0 0  XYZ
  end
  begin
     id 2 
     name lfemur
     direction 0.34202 -0.939693 0  
     length 6.4574  
     axis 0 0 20  XYZ
    dof rx ry rz
    limits (-160.0 20.0)
           (-70.0 70.0)
           (-60.0 70.0)
  end
  begin
     id 3 
     name ltibia
     direction 0.34202 -0.939693 0   
     length 7.68739   
     axis 0 0 20   XYZ
    dof rx
    limits (-10.0 170.0)
  end
  begin
     id 4 
     name lfoot
     direction 0.0681309 -0.187188 0.979959   
     length 2.46615   
     axis -90 7.62852e-016 20   XYZ
    dof rx rz
    limits (-45.0 90.0)
           (-70.0 20.0)
  end
  begin
     id 5 
     name ltoes
     direction 1.53566e-011 -4.21819e-011 1   
     length 1.2376   
     axis -90 7.62852e-016 20   XYZ
    dof rx
    limits (-90.0 20.0)
  end
  begin
     id 6 
     name rhipjoint
     direction -0.644473 -0.655875 0.393043   
     length 2.43293  
     axis 0 0 0  XYZ 
  end
  begin
     id 7 
     name rfemur
     direction -0.34202 -0.939693 0   
     length 6.7025   
     axis 0 0 -20   XYZ
    dof rx ry rz
    limits (-160.0 20.0)
           (-70.0 70.0)
           (-70.0 60.0)
  end
  begin
     id 8 
     name rtibia
     direction -0.34202 -0.939693 0   
     length 7.80547   
     axis 0 0 -20   XYZ
    dof rx
    limits (-10.0 170.0)
 end
 begin
     id 9 
     name rfoot
     direction -0.0756734 -0.207911 0.975216   
     length 2.40315  
     axis -90 -7.62852e-016 -20   XYZ
    dof rx rz
    limits (-45.0 90.0)
           (-20.0 70.0)
  end
  begin
     id 10 
     name rtoes
     direction -1.5353e-011 -4.21879e-011 1   
     length 1.20477   
     axis -90 -7.62852e-016 -20   XYZ
    dof rx
    limits (-90.0 20.0)
  end
  begin
     id 11 
     name lowerback
     direction 0.0160353 0.987463 -0.157037   
     length 2.18572   
     axis 0 0 0   XYZ
    dof rx ry rz
    limits (-20.0 45.0)
           (-30.0 30.0)
           (-30.0 30.0)
  end
  begin
     id 12 
     name upperback
     direction -0.00499661 0.999756 0.0215076   
     length 2.18016   
     axis 0 0 0   XYZ
    dof rx ry rz
    limits (-20.0 45.0)
           (-30.0 30.0)
           (-30.0 30.0)
  end
  begin
     id 13 
     name thorax
     direction -0.00921346 0.995333 0.0960619   
     length 2.24923   
     axis 0 0 0   XYZ
    dof rx ry rz
    limits (-20.0 45.0)
           (-30.0 30.0)
           (-30.0 30.0)
  end
  begin
     id 14 
     name lowerneck
     direction 0.0274184 0.991181 0.12965   
     length 1.70911   
     axis 0 0 0   XYZ
    dof rx ry rz
    limits (-20.0 45.0)
           (-30.0 30.0)
           (-30.0 30.0)
  end
  begin
     id 15 
     name upperneck
     direction 0.0015627 0.999959 -0.00893559   
     length 1.69312   
     axis 0 0 0   XYZ
    dof rx ry rz
    limits (-20.0 45.0)
           (-30.0 30.0)
           (-30.0 30.0)
  end
  begin
     id 16
     name head
     direction -0.00230242 0.999856 -0.0168327  
     length 1.80241  
     axis 0 0 0   XYZ
    dof rx ry rz
    limits (-20.0 45.0)
           (-30.0 30.0)
           (-30.0 30.0)
  end
  begin
     id 17 
     name lclavicle
     direction 0.955523 0.290741 -0.0494489  
     length 3.84275  
     axis 0 0 0   XYZ
    dof ry rz
    limits (-20.0 10.0)
           (0.0 20.0)
  end
  begin
     id 18 
     name lhumerus
     direction 1 -4.48967e-011 -3.18382e-028   
     length 5.17714   
     axis 180 -30 -90   XYZ
    dof rx ry rz
    limits (-60.0 90.0)
           (-90.0 90.0)
           (-90.0 90.0)
  end
  begin
     id 19
     name lradius
     direction 1 -4.48968e-011 -2.22911e-027   
     length 3.43679   
     axis 180 -30 -90   XYZ
    dof rx
    limits (-10.0 170.0)
  end
  begin
     id 20
     name lwrist
     direction 1 -4.48951e-011 -6.32245e-027   
     length 1.7184   
     axis 3.57107e-015 90 90   XYZ
    dof ry
    limits (-180.0 0.0)
 end
  begin
     id 21 
     name lhand
     direction 1 -4.48924e-011 -1.26431e-026   
     length 0.573117   
     axis 8.06912e-015 90 90   XYZ
    dof rx rz
    limits (-90.0 90.0)
           (-45.0 45.0)
  end
  begin
     id 22 
     name lfingers
     direction 1 -4.49001e-011 -2.52965e-026   
     length 0.462062   
     axis 1.61381e-014 90 90   XYZ
    dof rx
    limits (0.0 90.0)
  end
  begin
     id 23
     name lthumb
     direction 0.707107 -6.35008e-011 0.707107   
     length 0.663431   
     axis -90 45 -1.62303e-014   XYZ
    dof rx rz
    limits (-45.0 45.0)
           (-45.0 45.0)
  end
  begin
     id 24 
     name rclavicle
     direction -0.963917 0.256881 -0.0698287   
     length 3.73057  
     axis 0 0 0   XYZ 
    dof ry rz
    limits (-10.0 20.0)
           (-20.0 0.0)
  end
  begin
     id 25 
     name rhumerus
     direction -1 -4.48962e-011 -2.73982e-027  
     length 5.23908   
     axis 180 30 90   XYZ
    dof rx ry rz
    limits (-90.0 60.0)
           (-90.0 90.0)
           (-90.0 90.0)
  end
  begin
     id 26 
     name rradius
     direction -1 -4.48968e-011 -4.33218e-027   
     length 3.46485   
     axis 180 30 90   XYZ
    dof rx
    limits (-10.0 170.0)
  end
  begin
     id 27 
     name rwrist
     direction -1 -4.48989e-011 -6.32372e-027   
     length 1.73243   
     axis 3.57107e-015 -90 -90   XYZ
    dof ry
    limits (-180.0 0.0)
  end
  begin
     id 28
     name rhand
     direction -1 -4.48948e-011 -1.26448e-026   
     length 0.608752   
     axis 8.06912e-015 -90 -90   XYZ
    dof rx rz
    limits (-90.0 90.0)
           (-45.0 45.0)
  end
  begin
     id 29
     name rfingers
     direction -1 -4.48962e-011 -2.52913e-026   
     length 0.490792   
     axis 1.61381e-014 -90 -90   XYZ
    dof rx
    limits (0.0 90.0)
  end
  begin
     id 30
     name rthumb
     direction -0.707107 -6.34878e-011 0.707107   
     length 0.704682   
     axis -90 -45 1.62303e-014   XYZ
    dof rx rz
    limits (-45.0 45.0)
           (-45.0 45.0)
  end
:hierarchy
  begin
    root lhipjoint rhipjoint lowerback
    lhipjoint lfemur
    lfemur ltibia
    ltibia lfoot
    lfoot ltoes
    rhipjoint rfemur
    rfemur rtibia
    rtibia rfoot
    rfoot rtoes
    lowerback upperback
    upperback thorax
    thorax lowerneck lclavicle rclavicle
    lowerneck upperneck
    upperneck head
    lclavicle lhumerus
    lhumerus lradius
    lradius lwrist
    lwrist lhand lthumb
    lhand lfingers
    rclavicle rhumerus
    rhumerus rradius
    rradius rwrist
    rwrist rhand rthumb
    rhand rfingers
  end

#!OML:ASF G:\JayActor3\Patient Classification 1\Patient 1\Session 6\male.ASF
:FULLY-SPECIFIED
:DEGREES
278
root 43.687 16.3292 14.8965 168.23 -48.8076 -162.139
lowerback -2.54531 3.00656 -0.776756
upperback 3.06055 4.03341 -0.596792
thorax 4.57216 1.96878 0.0770027
lowerneck -6.24243 -1.31296 0.922949
upperneck 28.3767 -4.78048 4.36999
head 10.1412 -2.21048 0.784794
rclavicle 6.99722e-014 4.92986e-014
rhumerus 44.6717 10.5629 -64.159
rradius 19.9609
rwrist 13.8941
rhand -14.4925 -5.57389
rfingers 7.12502
rthumb 11.6542 -35.2298
lclavicle 6.99722e-014 4.92986e-014
lhumerus -20.4025 16.9561 69.8933
lradius 20.0101
lwrist 23.0283
lhand -16.7486 7.273
lfingers 7.12502
lthumb 9.47793 37.0399
rfemur -26.61 -6.71881 17.863
rtibia 52.6479
rfoot 6.58838 -13.7062
rtoes 10.3425
lfemur -1.25465 1.33333 -18.905
ltibia 24.9738
lfoot -24.5961 24.7317
ltoes 1.22742
279
root 43.6596 16.3549 14.9194 168.228 -48.8715 -162.092
lowerback -2.39916 2.96657 -0.805351
upperback 3.10267 3.97731 -0.588174
thorax 4.53063 1.9393 0.0911202
lowerneck -6.22708 -1.32597 0.920016
upperneck 28.2727 -4.78865 4.39548
head 10.1008 -2.21086 0.794291
rclavicle 8.34896e-014 -2.8625e-014
rhumerus 44.835 10.5221 -64.0779
rradius 19.9346
rwrist 13.9208
rhand -14.419 -5.59317
rfingers 7.12502
rthumb 11.7251 -35.245
lclavicle 8.34896e-014 -2.8625e-014
lhumerus -20.0147 16.1574 70.5362
lradius 20.4771
lwrist 23.6533
lhand -16.6837 7.41492
lfingers 7.12502
lthumb 9.5405 37.1789
rfemur -27.4308 -6.84022 17.7734
rtibia 53.4672
rfoot 7.88726 -14.5039
rtoes 11.4248
lfemur -1.1477 1.6046 -18.9085
ltibia 24.653
lfoot -23.8394 24.5323
ltoes 0.374301
280
root 43.6317 16.3799 14.9421 168.216 -48.9439 -162.036
lowerback -2.24777 2.9252 -0.826793
upperback 3.14421 3.91887 -0.58093
thorax 4.48618 1.9089 0.0996107
lowerneck -6.22529 -1.34061 0.924779
upperneck 28.1743 -4.79916 4.41489
head 10.0648 -2.2117 0.799864
rclavicle -4.37326e-014 3.18055e-014
rhumerus 44.9983 10.4832 -63.9819
rradius 19.9143
rwrist 13.9315
rhand -14.343 -5.61945
rfingers 7.12502
rthumb 11.7984 -35.2671
lclavicle -4.37326e-014 3.18055e-014
lhumerus -19.6318 15.379 71.1538
lradius 20.9435
lwrist 24.2458
lhand -16.6355 7.52759
lfingers 7.12502
lthumb 9.58704 37.2895
rfemur -28.2336 -6.89808 17.6973
rtibia 54.2485
rfoot 9.11513 -15.3496
rtoes 12.5855
lfemur -1.03343 1.87306 -18.9066
ltibia 24.3274
lfoot -23.0859 24.3204
ltoes -0.490464
281
root 43.6034 16.4038 14.9645 168.198 -49.0261 -161.975
lowerback -2.09756 2.87841 -0.847963
upperback 3.18848 3.85299 -0.571547
thorax 4.44521 1.87469 0.110084
lowerneck -6.23357 -1.35432 0.926374
upperneck 28.0774 -4.80593 4.42861
head 10.0313 -2.2113 0.804249
rclavicle -4.17448e-014 0
rhumerus 45.1731 10.4554 -63.8716
rradius 19.8978
rwrist 13.9335
rhand -14.2692 -5.65579
rfingers 7.12502
rthumb 11.8695 -35.2994
lclavicle -4.17448e-014 0
lhumerus -19.249 14.6397 71.749
lradius 21.3964
lwrist 24.8165
lhand -16.6054 7.64966
lfingers 7.12502
lthumb 9.61613 37.4102
rfemur -29.0123 -6.90146 17.6324
rtibia 54.9857
rfoot 10.2876 -16.1959
rtoes 13.6335
lfemur -0.914068 2.14605 -18.9014
ltibia 24.0009
lfoot -22.345 24.0849
ltoes -1.34661
282
root 43.5747 16.4264 14.9865 168.177 -49.1219 -161.915
lowerback -1.94454 2.83054 -0.87055
upperback 3.23365 3.78562 -0.565045
thorax 4.40376 1.83968 0.118415
lowerneck -6.24511 -1.37015 0.933386
upperneck 27.9798 -4.81512 4.4383
head 9.99795 -2.21171 0.806001
rclavicle -6.48038e-014 -4.6118e-014
rhumerus 45.3474 10.4221 -63.751
rradius 19.8833
rwrist 13.9339
rhand -14.2028 -5.69679
rfingers 7.12502
rthumb 11.9335 -35.3367
lclavicle -6.48038e-014 -4.6118e-014
lhumerus -18.8751 13.8951 72.3282
lradius 21.8638
lwrist 25.3973
lhand -16.6017 7.81317
lfingers 7.12502
lthumb 9.61967 37.5735
rfemur -29.7584 -6.86022 17.5735
rtibia 55.6733
rfoot 11.3595 -17.0543
rtoes 14.6793
lfemur -0.791565 2.42624 -18.8976
ltibia 23.6812
lfoot -21.6215 23.8204
ltoes -2.16496
